# xmcd
#
# Track frame offsets:
#	150
#	14334
#	28914
#	51898
#	66279
#	82739
#	97907
#	110188
#	123773
#	137716
#	150432
#	168661
#
# Disc length: 2498 seconds
#
# Revision: 1
# Processed by: cddbd v1.5.2PL0 Copyright (c) Steve Scherf et al.
# Submitted via: audiograbber 1.83.01
#
DISCID=9709c00c
DTITLE=Carolyne Jomphe - L'acadie N'a Pas De Frontières
DYEAR=1900
DGENRE=Folklore
TTITLE0=Bonaventure (Carolyne Jomphe)
TTITLE1=L'acadie N'a Pas De Frontières (Carolyne Jomphe)
TTITLE2=Les Enfants De La Guerre (Carolyne Jomphe)
TTITLE3=Partie Pour Montréal (Carolyne Jomphe)
TTITLE4=P'tit Prout! (Carolyne Jomphe)
TTITLE5=Colinda (Droit Publique)
TTITLE6=Baton-Rouge (Carolyne Jomphe-Dannis Linde)
TTITLE7=La Chanson De La Mer (Carolyne Jomphe)
TTITLE8=Les Débats Passionnés (Carolyne Jomphe)
TTITLE9=Péteuse De Broue (Carolyne Jomphe)
TTITLE10=L'héritage (Carolyne Jomphe)
TTITLE11=Allons Swinger (VF - Mary Capin Carpenter)
EXTD=
EXTT0=
EXTT1=
EXTT2=
EXTT3=
EXTT4=
EXTT5=
EXTT6=
EXTT7=
EXTT8=
EXTT9=
EXTT10=
EXTT11=
PLAYORDER=
